<svg width="24" height="25" viewBox="0 0 24 25" fill="none" xmlns="http://www.w3.org/2000/svg">
<path d="M17 2.01611H7C4.23858 2.01611 2 4.25469 2 7.01611V17.0161C2 19.7775 4.23858 22.0161 7 22.0161H17C19.7614 22.0161 22 19.7775 22 17.0161V7.01611C22 4.25469 19.7614 2.01611 17 2.01611Z" stroke="#02897A" stroke-width="2" stroke-linecap="round" stroke-linejoin="round"/>
<path d="M15.9997 11.3862C16.1231 12.2184 15.981 13.0684 15.5935 13.8152C15.206 14.562 14.5929 15.1676 13.8413 15.5458C13.0898 15.9241 12.2382 16.0558 11.4075 15.9221C10.5768 15.7884 9.80947 15.3963 9.21455 14.8013C8.61962 14.2064 8.22744 13.439 8.09377 12.6084C7.96011 11.7777 8.09177 10.9261 8.47003 10.1745C8.84829 9.42302 9.45389 8.80991 10.2007 8.42241C10.9475 8.03491 11.7975 7.89276 12.6297 8.01617C13.4786 8.14206 14.2646 8.53763 14.8714 9.14448C15.4782 9.75132 15.8738 10.5372 15.9997 11.3862Z" stroke="#02897A" stroke-width="2" stroke-linecap="round" stroke-linejoin="round"/>
<path d="M17.5 6.51611H17.51" stroke="#02897A" stroke-width="2" stroke-linecap="round" stroke-linejoin="round"/>
</svg>
